<?xml version="1.0" encoding="UTF-8"?><svg id="a" xmlns="http://www.w3.org/2000/svg" xmlns:xlink="http://www.w3.org/1999/xlink" viewBox="0 0 1473.8345 932.5546"><defs><linearGradient id="b" x1="669.0377" y1="391.5848" x2="465.5148" y2="391.5848" gradientUnits="userSpaceOnUse"><stop offset=".0123" stop-color="#fbb03f"/><stop offset=".5583" stop-color="#f58426"/><stop offset=".6319" stop-color="#f27925"/><stop offset=".7576" stop-color="#eb5e24"/><stop offset=".9194" stop-color="#e13222"/><stop offset="1" stop-color="#db1a21"/></linearGradient><linearGradient id="c" x1="-3382.8148" y1="391.5848" x2="-3586.3384" y2="391.5848" gradientTransform="translate(-2578.8744) rotate(-180) scale(1 -1)" gradientUnits="userSpaceOnUse"><stop offset=".0123" stop-color="#fbb040"/><stop offset=".5583" stop-color="#f58421"/><stop offset=".6319" stop-color="#f27921"/><stop offset=".7576" stop-color="#eb5e21"/><stop offset=".9194" stop-color="#e13221"/><stop offset="1" stop-color="#db1a21"/></linearGradient></defs><path d="M1417.9802,136.7607c2.5181-5.9216,4.9941-11.7756,7.6442-18.2252L1473.8345,0l-82.7253,11.8175c-88.792,12.6804-339.1839,42.9262-430.2945,30.7641l-16.5926-2.2412-14.3743,8.6073c-45.1285,26.9224-100.6095,54.08-145.2035,75.886,0,0-32.7959,15.8102-48.5609,23.7122-15.7654-7.902-46.8932-23.7122-46.8932-23.7122-44.594-21.806-100.075-48.9636-145.2035-75.886l-14.3742-8.6073-16.5927,2.2412c-91.1103,12.1621-341.5022-18.0837-430.2942-30.7641L0,0l48.2101,118.5356c2.65,6.4495,5.1263,12.3035,7.6445,18.2252-.5088-.1418-30.893-8.2432-30.893-8.2432,1.0465,4.244,40.6656,94.5237,71.5167,149.1174-10.7677-3.5871-29.7515-7.3352-29.7515-7.3352.8243,1.9062,51.6571,118.7028,80.8273,163.8668-21.2973-5.0683-51.7488-12.3197-51.7488-12.3197l56.7914,96.9739c8.8872,15.1729,219.2575,367.7326,572.0041,412.2784,4.091.515,8.1885,1.0238,12.3164,1.4554,4.1282-.4316,8.2241-.9404,12.3134-1.4554,352.7496-44.5393,563.1199-397.1056,572.0071-412.2784l56.7917-96.9739s-30.4519,7.2514-51.7491,12.3197c29.1702-45.1641,80.0014-161.9607,80.8257-163.8668,0,0-18.9818,3.748-29.7495,7.3352,30.8508-54.5937,70.4699-144.8734,71.5164-149.1174,0,0-30.3839,8.1015-30.8927,8.2432Z"/><path d="M955.8882,97.3735c-81.5791,36.7952-187.4468,89.8643-219.9338,108.5629-32.4866-18.6987-136.4287-71.7677-218.0082-108.5629-117.4307,15.7007-441.2099-35.3108-441.2099-35.3108l16.7473,41.1196c22.482,55.2749,39.59,91.8413,75.7155,118.9669-1.6134-.425-49.5884-14.3967-49.5884-14.3967,0,0,24.0053,95.9774,116.7837,169.5675l-76.7783-25.5926s46.3811,108.7789,102.3805,161.5676l-67.2115-15.9906s202.6487,340.3304,529.2342,389.3131c.5813.0903,1.1639.1741,1.7469.2641,3.7012.5411,7.4173,1.0499,11.1508,1.5197,3.7335-.4699,7.4496-.9786,11.1511-1.5197.5826-.09,1.1656-.1738,1.7466-.2641,326.5856-48.9827,529.2342-389.3131,529.2342-389.3131l-67.2115,15.9906c55.9993-52.7888,102.3805-161.5676,102.3805-161.5676l-76.7779,25.5926c92.7784-73.5901,116.7834-169.5675,116.7834-169.5675,0,0-47.975,13.9716-49.5881,14.3967,36.1252-27.1256,53.2332-63.6919,75.7155-118.9669l16.7473-41.1196s-323.7792,51.0115-441.2102,35.3108Z" fill="#fff"/><path d="M955.7721,77.0295l-5.5381-.7406-4.7883,2.8561c-46.2555,27.5987-102.3999,55.0784-147.5317,77.1548-1.3878.6825-2.7948,1.375-4.2149,2.077-.5764.2865-1.1656.5793-1.7453.8662-.8243.4122-1.6421.8177-2.473,1.2299-.8629.4316-1.7324.8695-2.6016,1.3008-.5764.2931-1.1527.5797-1.7324.8695-.76.3831-1.5201.7663-2.2768,1.1494-.6921.3512-1.3845.699-2.0766,1.0466-.8632.4379-1.7228.8761-2.5824,1.314-.5668.2898-1.1399.5764-1.7067.8629-.9628.4926-1.919.9819-2.8789,1.4716-.4685.2414-.9401.4798-1.4069.7178-.9549.4896-1.8999.9757-2.8466,1.462-.4685.2414-.9417.4831-1.4073.7244-.9354.4798-1.8577.9565-2.7786,1.433-.459.2384-.9226.4765-1.3783.7116-.9691.4992-1.9223.9951-2.8723,1.4877-.3782.1965-.763.396-1.1366.5892-1.0304.5345-2.04,1.0627-3.0414,1.5844-.2833.148-.5748.2994-.8567.4441-1.0044.5282-1.9833,1.037-2.9527,1.5458-.2654.1385-.5375.2803-.7983.4184-.9068.4735-1.7825.9338-2.6533,1.3911-.3238.1708-.6572.3479-.974.5154-.9308.4893-1.8323.9628-2.7147,1.4297-.1866.0966-.3798.1995-.5635.2961-.8998.4765-1.7631.9338-2.6082,1.3816-.1771.0933-.3624.1899-.5361.2832-.9354.4992-1.8353.9757-2.6919,1.433-.029.0158-.0597.032-.0887.0448-.8725.4669-1.6968.9081-2.4792,1.3268-.2463.1319-.52.277-.7567.4056-.182-.0966-.3898-.2123-.5764-.309-.0468-.0257-.1016-.058-.148-.0838-5.4659-2.9399-12.9366-7.0453-21.415-11.6309-.1721-.0933-.3396-.1866-.5134-.2766-1.1626-.6314-2.3444-1.2688-3.539-1.9095-.1223-.0646-.2414-.1289-.3637-.1965-1.069-.5731-2.1574-1.1593-3.2508-1.739-.2849-.1543-.5648-.3057-.8517-.457-.9529-.5088-1.919-1.0241-2.8865-1.5392-.4254-.2255-.8454-.4507-1.2737-.6763-1.0769-.5731-2.1637-1.1465-3.2538-1.7195-.2944-.1546-.5876-.309-.8823-.4636-1.0608-.5572-2.1268-1.1142-3.1941-1.6714-.3574-.1866-.7132-.3733-1.0706-.5602-1.0047-.5216-2.011-1.04-3.0174-1.5583-.4138-.216-.8289-.4316-1.2444-.644-1.0561-.5444-2.1122-1.0789-3.1684-1.62-.3591-.18-.7198-.367-1.0805-.5503-.9819-.4992-1.9609-.9889-2.9399-1.4782-.4379-.2189-.8774-.4445-1.3136-.6601-1.4007-.6987-2.7951-1.3911-4.1797-2.0704-45.1318-22.0764-101.2759-49.5561-147.5317-77.1548l-4.788-2.8561-5.5385.7406c-113.8857,15.2243-435.8165-30.3457-439.0462-30.7898l-27.5925-3.9413,27.2222,66.9088c13.2083,32.4095,24.8874,59.0068,39.8799,81.5821-6.9778-2.0348-28.7178-7.3157-28.7178-7.3157.8115,3.2683,31.2617,93.2146,85.1775,156.5267-2.4021-.7986-44.0434-14.6898-44.0434-14.6898l13.9397,32.6897c1.552,3.6514,31.3243,72.7272,72.534,128.2468-7.6507-1.8224-55.3455-13.1697-55.3455-13.1697l18.9367,32.329c7.0582,12.049,149.5071,247.0333,388.9639,352.5403,47.8415,20.6661,99.6015,36.1546,155.0647,43.5992,1.0288.1352,2.0674.2509,3.0991.3864,2.9142.3733,5.8478.7083,8.7827,1.0367,2.9336-.3284,5.8652-.6634,8.7794-1.0367,1.0113-.1289,2.0288-.245,3.0381-.3802,55.4263-7.4318,107.156-22.8941,154.973-43.5346,239.5501-105.475,382.0584-340.5556,389.1198-352.6112l18.937-32.329s-47.6951,11.3473-55.3458,13.1697c41.21-55.5196,70.9823-124.5954,72.5343-128.2468l13.9393-32.6897s-41.6413,13.8912-44.0433,14.6898c53.9161-63.3121,84.3644-153.2584,85.1758-156.5267,0,0-21.7381,5.281-28.7162,7.3157,14.9925-22.5753,26.6715-49.1726,39.8802-81.5821l27.2218-66.9088-27.5921,3.9413c-3.2297.4441-325.1608,46.0141-439.0465,30.7898ZM1380.3511,103.1824c-22.4823,55.2749-39.5903,91.8413-75.7155,118.9669,1.613-.425,49.5881-14.3967,49.5881-14.3967,0,0-24.005,95.9774-116.7834,169.5675l76.7779-25.5926s-46.3811,108.7789-102.3805,161.5676l67.2115-15.9906s-202.6487,340.3304-529.2342,389.3131c-.581.0903-1.1639.1741-1.7466.2641-3.7015.5411-7.4176,1.0499-11.1511,1.5197-3.7335-.4699-7.4496-.9786-11.1508-1.5197-.583-.09-1.1656-.1738-1.7469-.2641-326.5856-48.9827-529.2342-389.3131-529.2342-389.3131l67.2115,15.9906c-55.9993-52.7888-102.3805-161.5676-102.3805-161.5676l76.7783,25.5926c-92.7784-73.5901-116.7837-169.5675-116.7837-169.5675,0,0,47.975,13.9716,49.5884,14.3967-36.1255-27.1256-53.2336-63.6919-75.7155-118.9669l-16.7473-41.1196s323.7792,51.0115,441.2099,35.3108c81.5795,36.7952,185.5215,89.8643,218.0082,108.5629,32.487-18.6987,138.3547-71.7677,219.9338-108.5629,117.431,15.7007,441.2102-35.3108,441.2102-35.3108l-16.7473,41.1196Z" fill="#f05423"/><path d="M463.5056,573.6512l-57.8492-131.7116c-61.1065-.277-191.6459-48.5385-191.6459-48.5385,0,0,57.4581,150.7871,249.4951,180.2501Z"/><path d="M1259.8227,393.401s-130.5397,48.2616-191.6426,48.5385l-57.8511,131.7116c192.0357-29.463,249.4937-180.2501,249.4937-180.2501Z"/><path d="M973.4922,636.4931c7.9953-9.6215,9.7758-7.7407,28.7966-46.4134.0548,0,.1157-.0063.1705-.0063l7.8697-16.4222,57.8511-131.7116,9.673-21.8123c-10.8128,1.9899-22.1153,3.7352-33.981,5.1906-11.1897,62.3974-51.1952,167.9819-70.3798,211.1752Z" fill="#0054a4"/><path d="M736.0834,236.4704s-126.7076-75.9332-219.4798-117.1623c-103.0726,15.4498-399.4206-25.7793-399.4206-25.7793,71.2108,175.0193,259.9841,168.6179,259.9841,168.6179l6.3918,19.2041c-63.9851-3.2135-134.1377-13.9298-215.7106-36.3283,23.0811,61.5474,72.7031,146.5109,228.1319,175.1047,10.8161,1.9899,22.1166,3.7352,33.9823,5.1906,11.1897,62.3974,51.1952,167.9819,70.3802,211.1752-7.9953-9.6215-9.7761-7.7407-28.7966-46.4134-.0547,0-.1161-.0063-.1724-.0063-52.8629-1.6615-163.055-33.585-222.7526-48.1587,22.4612,24.9873,240.3309,292.1008,477.0634,313.9777,3.7401.3413,7.4849.6311,11.2329.85,3.748-.2189,7.4915-.5088,11.2299-.85,236.7309-21.8703,454.6038-288.9904,477.0667-313.9777-59.6992,14.5737-169.8884,46.4972-222.7546,48.1587-.0547,0-.1157.0063-.1705.0063-19.0208,38.6727-20.8013,36.7919-28.7966,46.4134,19.1846-43.1933,59.1901-148.7777,70.3798-211.1752,11.8657-1.4554,23.1681-3.2007,33.981-5.1906,155.4301-28.5938,205.0508-113.5573,228.1319-175.1047-81.5696,22.3986-151.7242,33.1148-215.7093,36.3283l6.3918-19.2041s188.7736,6.4014,259.9844-168.6179c0,0-296.348,41.2291-399.4209,25.7793-92.7718,41.2291-221.1475,117.1623-221.1475,117.1623Z"/><path d="M713.5575,457.3119c-22.3854-6.4014-43.1804,0-70.3799-25.5926-4.5338-4.2697-11.3892-10.2717-19.6291-17.298-4.9459,5.6094-12.9155,9.2994-21.9702,9.2994-15.0149,0-27.1899-10.0271-27.1899-22.4048,0-7.5413,4.5724-14.1939,11.5277-18.2575-38.4986-31.5947-80.3169-64.9222-80.3169-64.9222-1.6035,6.3951-9.6116,28.7999-6.4014,51.1919,10.6552,74.4985,95.9887,102.3904,124.7853,94.3789,28.7999-7.9923,111.9763,0,89.5744-6.3951h0Z" fill="url(#b)" fill-rule="evenodd"/><path d="M759.4203,457.3119c22.384-6.4014,43.1788,0,70.3815-25.5926,4.5338-4.2697,11.3863-10.2717,19.6295-17.298,4.9459,5.6094,12.9122,9.2994,21.9669,9.2994,15.0182,0,27.1899-10.0271,27.1899-22.4048,0-7.5413-4.5724-14.1939-11.5277-18.2575,38.4986-31.5947,80.3202-64.9222,80.3202-64.9222,1.6035,6.3951,9.6083,28.7999,6.4014,51.1919-10.6585,74.4985-95.989,102.3904-124.7886,94.3789-28.7999-7.9923-111.9746,0-89.5731-6.3951h0Z" fill="url(#c)" fill-rule="evenodd"/><path d="M500.3427,636.4931c-19.185-43.1933-59.1905-148.7777-70.3802-211.1752-11.8657-1.4554-23.1662-3.2007-33.9823-5.1906l9.6762,21.8123,57.8492,131.7116,7.868,16.4222c.0564,0,.1177.0063.1724.0063,19.0205,38.6727,20.8013,36.7919,28.7966,46.4134Z" fill="#0054a4"/></svg>