<?xml version="1.0" encoding="UTF-8" standalone="no"?>
<!-- Created with Inkscape (http://www.inkscape.org/) -->

<svg
   width="246.71886mm"
   height="49.389366mm"
   viewBox="0 0 246.71885 49.389366"
   version="1.1"
   id="svg5"
   inkscape:export-filename="cap-crunch-test.svg"
   inkscape:export-xdpi="96"
   inkscape:export-ydpi="96"
   sodipodi:docname="capcrunch.svg"
   xmlns:inkscape="http://www.inkscape.org/namespaces/inkscape"
   xmlns:sodipodi="http://sodipodi.sourceforge.net/DTD/sodipodi-0.dtd"
   xmlns="http://www.w3.org/2000/svg"
   xmlns:svg="http://www.w3.org/2000/svg">
  <sodipodi:namedview
     id="namedview7"
     pagecolor="#ffffff"
     bordercolor="#999999"
     borderopacity="1"
     inkscape:showpageshadow="0"
     inkscape:pageopacity="0"
     inkscape:pagecheckerboard="0"
     inkscape:deskcolor="#d1d1d1"
     inkscape:document-units="mm"
     showgrid="false" />
  <defs
     id="defs2" />
  <g
     inkscape:label="Layer 1"
     inkscape:groupmode="layer"
     id="layer1"
     transform="translate(35.129992,-28.900012)">
    <path
       style="font-weight:900;font-size:37.8463px;line-height:0px;font-family:Lexend;-inkscape-font-specification:'Lexend Heavy';text-decoration-color:#000000;fill:#5087a0;fill-opacity:1;fill-rule:evenodd;stroke:#646464;stroke-width:0.2;stroke-dasharray:none;stroke-opacity:0.984314;stop-color:#000000"
       d="m 186.39816,37.59182 v 29.864014 h 8.56177 v -10.82743 h 7.96715 v 10.82743 h 8.56178 V 37.59182 h -8.56178 v 10.805525 h -7.96715 V 37.59182 Z"
       id="path4290" />
    <path
       style="font-weight:900;font-size:37.8463px;line-height:0px;font-family:Lexend;-inkscape-font-specification:'Lexend Heavy';text-decoration-color:#000000;fill:#5087a0;fill-opacity:1;fill-rule:evenodd;stroke:#646464;stroke-width:0.2;stroke-dasharray:none;stroke-opacity:0.984314;stop-color:#000000"
       d="m 128.86865,37.59182 v 29.864014 h 8.24509 v -8.148508 c 0,-1.052345 -0.0134,-1.962653 -0.0399,-2.730577 0,-0.796369 -0.0263,-1.507431 -0.0792,-2.133147 -0.0264,-0.654169 -0.0662,-1.308292 -0.11904,-1.962446 -0.009,-0.121937 -0.0246,-0.255449 -0.0365,-0.38182 l 0.005,-5.68e-4 10.33724,15.357066 h 7.72964 V 37.59182 h -8.24453 v 5.545947 2.986629 c 0,0.853253 0.0129,1.635467 0.0393,2.346513 0.0529,0.711046 0.10606,1.436322 0.15892,2.175818 0.0793,0.711045 0.15823,1.49326 0.23751,2.346514 0.0147,0.118088 0.0343,0.289591 0.0494,0.413263 h -5.6e-4 L 136.51879,37.59182 Z"
       id="path4288" />
    <path
       style="font-weight:900;font-size:37.8463px;line-height:0px;font-family:Lexend;-inkscape-font-specification:'Lexend Heavy';text-decoration-color:#000000;fill:#5087a0;fill-opacity:1;fill-rule:evenodd;stroke:#646464;stroke-width:0.2;stroke-dasharray:none;stroke-opacity:0.984314;stop-color:#000000"
       d="m 99.870453,37.335778 v 18.387488 c 0,2.275344 0.528657,4.294644 1.585677,6.05804 1.05701,1.763388 2.51029,3.157028 4.36006,4.18094 1.8762,0.995467 4.01663,1.493588 6.42134,1.493588 2.40464,0 4.53225,-0.498121 6.38202,-1.493588 1.87615,-1.023912 3.34291,-2.417552 4.39992,-4.18094 1.05702,-1.763396 1.58513,-3.782696 1.58513,-6.05804 V 37.335778 h -8.44274 v 18.003419 c 0,0.82482 -0.17193,1.564329 -0.51546,2.218492 -0.34353,0.625722 -0.80556,1.123847 -1.38692,1.493595 -0.58134,0.369748 -1.25562,0.554207 -2.02195,0.554207 -0.7135,0 -1.36088,-0.184459 -1.94224,-0.554207 -0.55493,-0.369748 -0.99064,-0.867873 -1.30774,-1.493595 -0.31711,-0.654163 -0.47559,-1.393672 -0.47559,-2.218492 V 37.335778 Z"
       id="path4286" />
    <path
       style="font-weight:900;font-size:37.8463px;line-height:0px;font-family:Lexend;-inkscape-font-specification:'Lexend Heavy';text-decoration-color:#000000;fill:#5087a0;fill-opacity:1;fill-rule:evenodd;stroke:#646464;stroke-width:0.2;stroke-dasharray:none;stroke-opacity:0.984314;stop-color:#000000"
       d="m 73.185366,37.59182 v 29.864014 h 8.007011 v -9.940816 h 1.336936 l 0.0067,0.01119 5.196696,9.929588 h 9.552824 l -6.02996,-11.176649 c -0.0022,0.0014 -0.0045,0.0024 -0.0067,0.0038 l 0.0022,-0.01177 0.0045,0.0084 c 0.0277,-0.0153 0.05666,-0.0282 0.08423,-0.04383 1.506234,-0.881696 2.681747,-2.104549 3.52735,-3.668851 0.84561,-1.564297 1.26843,-3.384911 1.26843,-5.461161 0,-1.848722 -0.42282,-3.48375 -1.26843,-4.905839 -0.845603,-1.422091 -2.021116,-2.545884 -3.52735,-3.370696 -1.50624,-0.82481 -3.22386,-1.236988 -5.1529,-1.236988 z m 8.007011,7.25235 h 3.488047 c 0.713484,0 1.294794,0.128097 1.744025,0.384064 0.475656,0.227532 0.819514,0.569114 1.030916,1.024186 0.237829,0.426623 0.356554,0.952653 0.356554,1.578381 0,0.6826 -0.118725,1.265558 -0.356554,1.749079 -0.211402,0.483499 -0.54182,0.867773 -0.99105,1.152195 -0.422801,0.255975 -0.964913,0.38351 -1.625547,0.38351 h -3.646391 z"
       id="path4284" />
    <path
       style="font-weight:900;font-size:37.8463px;line-height:0px;font-family:Lexend;-inkscape-font-specification:'Lexend Heavy';text-decoration-color:#000000;fill:#a7a7a7;fill-opacity:1;fill-rule:evenodd;stroke:#646464;stroke-width:0.2;stroke-dasharray:none;stroke-opacity:0.984314;stop-color:#000000"
       d="m 21.268538,37.59182 v 29.864014 h 8.561776 v -8.873969 h 3.924333 c 1.902621,0 3.59392,-0.454867 5.073728,-1.365011 1.479815,-0.938572 2.642442,-2.218918 3.488048,-3.840107 0.845606,-1.621182 1.268432,-3.4697 1.268432,-5.545946 0,-1.990938 -0.422826,-3.754622 -1.268432,-5.290468 -0.845606,-1.535865 -2.008233,-2.74448 -3.488048,-3.626183 -1.479808,-0.881696 -3.171107,-1.32233 -5.073728,-1.32233 z m 8.403432,7.849789 h 2.496998 c 0.502076,0 0.951223,0.09963 1.347604,0.298719 0.396374,0.170655 0.700481,0.441064 0.911877,0.810804 0.237829,0.369739 0.356555,0.853087 0.356555,1.450361 0,0.59728 -0.118726,1.094846 -0.356555,1.493037 -0.211396,0.398181 -0.515503,0.711289 -0.911877,0.938822 -0.396381,0.199104 -0.845528,0.298723 -1.347604,0.298723 H 29.67197 Z"
       id="path4282" />
    <path
       id="path4280"
       style="font-weight:900;font-size:37.8463px;line-height:0px;font-family:Lexend;-inkscape-font-specification:'Lexend Heavy';text-decoration-color:#000000;fill:#a7a7a7;fill-opacity:1;fill-rule:evenodd;stroke:#646464;stroke-width:0.2;stroke-dasharray:none;stroke-opacity:0.984314;stop-color:#000000"
       d="m 7.1950711,33.308407 -6.58874511,1.90686 1.03662921,3.137277 -10.8541178,29.103133 h 8.32403969 L 0.61407745,63.040442 H 9.7401354 l 1.5017176,4.415235 h 0.0186 l 0.0021,0.0057 3.086117,8.776725 c 3.18284,1.414596 9.516682,2.05768 19.000907,1.929082 1.617167,-1.390922 2.979166,-4.783343 2.507341,-7.523055 l -15.335499,-0.77153 -0.881083,-2.416906 h 0.08372 l -5.2927,-14.293185 z M 5.1750394,49.471245 h 0.075448 c 0.081308,0.310739 0.1620647,0.627533 0.243396,0.919323 0.1585513,0.540398 0.3441201,1.123526 0.5555216,1.749248 0.2114016,0.62572 0.4622488,1.379659 0.7529256,2.26136 L 7.590913,56.718864 H 2.7633003 l 0.7885823,-2.317688 c 0.2906769,-0.881701 0.5420409,-1.63564 0.7534424,-2.26136 0.2378269,-0.625722 0.4362443,-1.20885 0.5947957,-1.749248 0.096421,-0.29651 0.1860399,-0.606675 0.2749187,-0.919323 z" />
    <path
       style="font-weight:900;font-size:37.8463px;line-height:0px;font-family:Lexend;-inkscape-font-specification:'Lexend Heavy';text-decoration-color:#000000;fill:#5087a0;fill-opacity:1;fill-rule:evenodd;stroke:#646464;stroke-width:0.2;stroke-dasharray:none;stroke-opacity:0.984314;stop-color:#000000"
       d="m 173.41358,36.311591 c -2.27259,0 -4.35981,0.384268 -6.26244,1.152195 -1.8762,0.767937 -3.5014,1.848467 -4.87551,3.242109 -1.37412,1.365218 -2.44433,3.000801 -3.21067,4.906408 -0.73991,1.905597 -1.11008,3.996064 -1.11008,6.271409 0,2.275346 0.37017,4.365813 1.11008,6.27141 0.73991,1.9056 1.78324,3.555423 3.13093,4.949083 1.37412,1.365193 2.98644,2.431502 4.83621,3.199433 1.8762,0.767929 3.92423,1.152196 6.14396,1.152196 1.40054,0 2.78772,-0.170794 4.16185,-0.512088 1.37411,-0.369753 2.62913,-0.86732 3.76543,-1.493035 1.13628,-0.625721 2.04801,-1.336771 2.73507,-2.133148 l -4.08268,-6.911521 c -0.4228,0.511963 -0.92459,0.981056 -1.50594,1.40769 -0.58136,0.39818 -1.22876,0.725528 -1.94224,0.981502 -0.71349,0.255967 -1.46672,0.383507 -2.25948,0.383507 -1.10986,0 -2.11399,-0.170229 -3.01246,-0.511533 -0.89846,-0.341298 -1.66513,-0.825192 -2.29934,-1.450914 -0.63421,-0.625715 -1.12312,-1.37947 -1.46665,-2.261173 -0.34353,-0.881695 -0.51489,-1.862597 -0.51489,-2.943383 0,-1.19456 0.17136,-2.247185 0.51489,-3.157327 0.34353,-0.910136 0.80611,-1.678112 1.38747,-2.30384 0.60778,-0.625721 1.30838,-1.094829 2.10114,-1.407679 0.81919,-0.341306 1.6777,-0.512099 2.57617,-0.512099 0.87204,0 1.63871,0.1281 2.29934,0.384073 0.68707,0.227531 1.28125,0.540641 1.78334,0.938827 0.52851,0.398191 0.97765,0.838825 1.3476,1.32234 l 5.11359,-6.442112 c -0.92489,-1.023901 -1.95539,-1.863052 -3.09162,-2.517207 -1.10987,-0.682604 -2.29937,-1.180174 -3.56778,-1.493035 -1.242,-0.3413 -2.51051,-0.512088 -3.80529,-0.512088 z"
       id="path4278" />
    <path
       style="font-weight:900;font-size:37.8463px;line-height:0px;font-family:Lexend;-inkscape-font-specification:'Lexend Heavy';text-decoration-color:#000000;fill:#5087a0;fill-opacity:1;fill-rule:evenodd;stroke:#646464;stroke-width:0.2;stroke-dasharray:none;stroke-opacity:0.984314;stop-color:#000000"
       d="m 60.599308,36.311591 c -2.27257,0 -4.360374,0.384268 -6.262988,1.152195 -1.876189,0.767937 -3.501405,1.848467 -4.875518,3.242109 -1.374107,1.365218 -2.444336,3.000801 -3.210665,4.906408 -0.73991,1.905597 -1.110089,3.996064 -1.110089,6.271409 0,2.275346 0.370179,4.365813 1.110089,6.27141 0.739904,1.9056 1.783811,3.555423 3.131493,4.949083 1.374112,1.365193 2.985888,2.431502 4.835651,3.199433 1.876195,0.767929 3.924231,1.152196 6.143951,1.152196 1.400532,0 2.787736,-0.170794 4.161849,-0.512088 1.374107,-0.369753 2.629706,-0.86732 3.76599,-1.493035 1.136285,-0.625721 2.048021,-1.336771 2.735074,-2.133148 l -4.083239,-6.911521 c -0.422805,0.511963 -0.92459,0.981056 -1.505948,1.40769 -0.581352,0.39818 -1.228754,0.725528 -1.942232,0.981502 -0.713485,0.255967 -1.466728,0.383507 -2.259483,0.383507 -1.109859,0 -2.113995,-0.170229 -3.012456,-0.511533 C 57.32233,58.32591 56.556208,57.842016 55.922,57.216294 55.287796,56.590579 54.798888,55.836824 54.455358,54.955121 54.111834,54.073426 53.9399,53.092524 53.9399,52.011738 c 0,-1.19456 0.171934,-2.247185 0.515458,-3.157327 0.34353,-0.910136 0.805556,-1.678112 1.386909,-2.30384 0.607782,-0.625721 1.308383,-1.094829 2.101138,-1.407679 0.819181,-0.341306 1.677712,-0.512099 2.576169,-0.512099 0.872036,0 1.638716,0.1281 2.29935,0.384073 0.687054,0.227531 1.281247,0.540641 1.783329,0.938827 0.5285,0.398191 0.97821,0.838825 1.348165,1.32234 L 71.06345,40.833921 C 70.138568,39.81002 69.108108,38.970869 67.971822,38.316714 66.861963,37.63411 65.672454,37.13654 64.404042,36.823679 63.162056,36.482379 61.89414,36.311591 60.599308,36.311591 Z"
       id="path4276" />
    <path
       style="font-weight:900;font-size:37.8463px;line-height:0px;font-family:Lexend;-inkscape-font-specification:'Lexend Heavy';text-decoration-color:#000000;fill:#a7a7a7;fill-opacity:1;fill-rule:evenodd;stroke:#646464;stroke-width:0.2;stroke-dasharray:none;stroke-opacity:0.984314;stop-color:#000000"
       d="m -19.571294,36.311591 c -2.27257,0 -4.359812,0.384268 -6.262427,1.152195 -1.876189,0.767937 -3.50141,1.848467 -4.875517,3.242109 -1.374113,1.365218 -2.444337,3.000801 -3.210666,4.906408 -0.739905,1.905597 -1.110088,3.996064 -1.110088,6.271409 0,2.275346 0.370183,4.365813 1.110088,6.27141 0.739904,1.9056 1.783245,3.555423 3.130933,4.949083 1.374106,1.365193 2.986443,2.431502 4.836212,3.199433 1.876189,0.767929 3.92423,1.152196 6.143949,1.152196 1.400539,0 2.787737,-0.170794 4.16185,-0.512088 1.374111,-0.369753 2.629145,-0.86732 3.765429,-1.493035 1.136284,-0.625721 2.0480183,-1.336771 2.7350743,-2.133148 l -4.0826783,-6.911521 c -0.422803,0.511963 -0.924593,0.981056 -1.505947,1.40769 -0.581358,0.39818 -1.228754,0.725528 -1.942233,0.981502 -0.71348,0.255967 -1.466723,0.383507 -2.259483,0.383507 -1.109859,0 -2.113999,-0.170229 -3.012455,-0.511533 -0.898457,-0.341298 -1.665146,-0.825192 -2.299349,-1.450914 -0.634209,-0.625715 -1.123113,-1.37947 -1.466642,-2.261173 -0.343525,-0.881695 -0.514897,-1.862597 -0.514897,-2.943383 0,-1.19456 0.171372,-2.247185 0.514897,-3.157327 0.343529,-0.910136 0.806112,-1.678112 1.38747,-2.30384 0.607778,-0.625721 1.308378,-1.094829 2.101139,-1.407679 0.819181,-0.341306 1.677712,-0.512099 2.576169,-0.512099 0.872032,0 1.63872,0.1281 2.299349,0.384073 0.687054,0.227531 1.281247,0.540641 1.783329,0.938827 0.528501,0.398191 0.977648,0.838825 1.347603,1.32234 l 5.1135943,-6.442112 c -0.9248823,-1.023901 -1.9553433,-1.863052 -3.0916273,-2.517207 -1.109859,-0.682604 -2.299374,-1.180174 -3.56778,-1.493035 -1.241987,-0.3413 -2.51046,-0.512088 -3.805296,-0.512088 z"
       id="text1034" />
    <path
       style="opacity:1;fill:#272727;fill-opacity:0.333333;fill-rule:evenodd;stroke:#646464;stroke-width:0.2;stroke-opacity:0.984314;stop-color:#000000"
       d="m 16.186352,76.871431 2.475059,0.507826 4.416116,-7.386086 -2.27863,-0.0844 z"
       id="path6996"
       sodipodi:nodetypes="ccccc" />
    <path
       style="opacity:1;fill:#272727;fill-opacity:0.333333;fill-rule:evenodd;stroke:#646464;stroke-width:0.2;stroke-opacity:0.984314;stop-color:#000000"
       d="m 18.692483,77.385713 2.260973,0.331976 4.404058,-7.50458 -2.146011,-0.16879 z"
       id="path6998"
       sodipodi:nodetypes="ccccc" />
    <path
       style="opacity:1;fill:#272727;fill-opacity:0.333333;fill-rule:evenodd;stroke:#646464;stroke-width:0.2;stroke-opacity:0.984314;stop-color:#000000"
       d="m 20.932018,77.655943 2.10027,0.240268 4.498899,-7.677756 -2.107184,-0.05942 c -1.621566,2.538038 -1.419007,2.454131 -4.491985,7.496908 z"
       id="path7000"
       sodipodi:nodetypes="cccccc" />
    <path
       style="opacity:1;fill:#272727;fill-opacity:0.333333;fill-rule:evenodd;stroke:#646464;stroke-width:0.2;stroke-opacity:0.984314;stop-color:#000000"
       d="m 23.197795,77.896211 2.196156,0.147601 4.152695,-7.694806 -2.001334,-0.120563 z"
       id="path7002"
       sodipodi:nodetypes="ccccc" />
    <path
       style="opacity:1;fill:#272727;fill-opacity:0.333333;fill-rule:evenodd;stroke:#646464;stroke-width:0.2;stroke-opacity:0.984314;stop-color:#000000"
       d="m 25.50228,78.032789 1.953287,0.08337 4.10725,-7.708931 -2.009109,-0.07525 z"
       id="path7004"
       sodipodi:nodetypes="ccccc" />
    <path
       style="opacity:1;fill:#272727;fill-opacity:0.333333;fill-rule:evenodd;stroke:#646464;stroke-width:0.2;stroke-opacity:0.984314;stop-color:#000000"
       d="m 27.431278,78.100134 2.060168,0.01895 4.111176,-7.59543 -2.039806,-0.09523 z"
       id="path7006"
       sodipodi:nodetypes="ccccc" />
    <path
       style="opacity:1;fill:#272727;fill-opacity:0.333333;fill-rule:evenodd;stroke:#646464;stroke-width:0.2;stroke-opacity:0.984314;stop-color:#000000"
       d="m 29.455771,78.171875 2.421114,0.01704 3.256881,-7.544718 -1.543198,-0.07234 z"
       id="path7786" />
    <rect
       style="opacity:1;fill:#7c7c7c;fill-opacity:1;fill-rule:evenodd;stroke:#646464;stroke-width:0.178813;stroke-opacity:0.984314;stop-color:#000000"
       id="rect11630"
       width="7.8471608"
       height="4.9152541"
       x="-10.34872"
       y="29.423365"
       ry="0.57832867"
       transform="rotate(-17.227672)" />
    <path
       style="opacity:1;fill:#7c7c7c;fill-opacity:1;fill-rule:evenodd;stroke:#646464;stroke-width:0.2;stroke-opacity:0.984314;stop-color:#000000"
       d="M 0.52175776,35.648936 7.3758974,33.619974 7.618861,33.185197 7.4370337,32.479687 0.09257914,35.065273 Z"
       id="path11839"
       sodipodi:nodetypes="cccccc" />
    <path
       style="opacity:1;fill:#7c7c7c;fill-opacity:1;fill-rule:evenodd;stroke:#646464;stroke-width:0.2;stroke-opacity:0.984314;stop-color:#000000"
       d="M 0.09550608,35.052182 -0.29664611,33.841626 7.1116205,31.429037 7.4099969,32.392368 Z"
       id="path11841"
       sodipodi:nodetypes="ccccc" />
    <path
       style="opacity:1;fill:#7c7c7c;fill-opacity:1;fill-rule:evenodd;stroke:#646464;stroke-width:0.2;stroke-opacity:0.984314;stop-color:#000000"
       d="M -0.29354492,33.922917 -0.60354954,32.83567 6.7109413,30.227005 7.1030935,31.416249 Z"
       id="path11843"
       sodipodi:nodetypes="ccccc" />
    <path
       style="opacity:1;fill:#7c7c7c;fill-opacity:1;fill-rule:evenodd;stroke:#646464;stroke-width:0.2;stroke-opacity:0.984314;stop-color:#000000"
       d="M -0.60354954,32.86977 -0.85930108,32.051365 6.4040405,29.32335 6.7578303,30.316518 Z"
       id="path11845"
       sodipodi:nodetypes="ccccc" />
    <path
       style="opacity:1;fill:#7c7c7c;fill-opacity:1;fill-rule:evenodd;stroke:#646464;stroke-width:0.2;stroke-opacity:0.984314;stop-color:#000000"
       d="M 0.8116088,35.683036 1.0673603,36.45029 7.9044502,35.171533 7.3758974,33.688175 Z"
       id="path11847" />
    <path
       style="opacity:1;fill:#7c7c7c;fill-opacity:1;fill-rule:evenodd;stroke:#646464;stroke-width:0.2;stroke-opacity:0.984314;stop-color:#000000"
       d="m 1.0411786,36.381913 0.3330825,1.057283 6.7518385,-1.32388 0.022188,-0.218456 -0.2769052,-0.805583 z"
       id="path11849"
       sodipodi:nodetypes="cccccc" />
    <path
       style="opacity:1;fill:#7c7c7c;fill-opacity:1;fill-rule:evenodd;stroke:#646464;stroke-width:0.2;stroke-opacity:0.984314;stop-color:#000000"
       d="M 1.6220949,38.271903 8.4881112,36.861561 8.1490006,35.874724 1.3572114,37.370996 Z"
       id="path11851"
       sodipodi:nodetypes="ccccc" />
  </g>
</svg>
