<?xml version="1.0" encoding="utf-8"?>
<!-- Generator: Adobe Illustrator 26.4.1, SVG Export Plug-In . SVG Version: 6.00 Build 0)  -->
<svg version="1.0" id="katman_1" xmlns="http://www.w3.org/2000/svg" xmlns:xlink="http://www.w3.org/1999/xlink" x="0px" y="0px"
	 viewBox="0 0 841.89 595.28" style="enable-background:new 0 0 841.89 595.28;" xml:space="preserve">
<style type="text/css">
	.st0{fill:#DDCBA4;}
	.st1{fill:#010101;}
	.st2{fill:#154734;}
	.st3{fill:#A9431E;}
	.st4{fill:#5F259F;}
	.st5{fill:#6F263D;}
</style>
<g>
	<path d="M639.53,519.86c-4.66,0-8.45,3.78-8.45,8.45c0,4.66,3.79,8.45,8.45,8.45s8.45-3.79,8.45-8.45
		C647.98,523.64,644.2,519.86,639.53,519.86L639.53,519.86z M639.53,534.95c-1.76,0-3.45-0.7-4.7-1.95
		c-1.24-1.24-1.94-2.93-1.94-4.69c0-1.76,0.7-3.45,1.94-4.69c1.25-1.24,2.93-1.94,4.7-1.94c1.76,0,3.45,0.7,4.69,1.94
		c1.24,1.25,1.94,2.93,1.94,4.69s-0.7,3.45-1.94,4.69C642.98,534.25,641.29,534.95,639.53,534.95L639.53,534.95z M643,526.35
		c0-1.58-1.28-2.86-2.87-2.86h-4.07v9.64h1.81v-3.92h1.3l1.83,3.92h2l-1.91-4.09C642.23,528.64,643,527.56,643,526.35L643,526.35z
		 M640.14,527.41h-2.26v-2.11h2.26c0.58,0,1.05,0.47,1.05,1.06C641.19,526.94,640.72,527.41,640.14,527.41L640.14,527.41z
		 M640.14,527.41"/>
	<path class="st0" d="M613.65,511.66l-0.03-22.73l-51.54-27.47l-8.7-24.05l-31.97-40.36l7.51-6.6l6.77,3.97l17.96-16.15l6.25,56.18
		l22.45-54.92l37.04,65l-10.31-93.8l-42.26-46.59l-20.47,16.6l-0.42-0.35l-2.15-35.57l-95.54-41.08l-6.43-5.3l40.78,3.88
		L436.2,207.8l1.79-1.77l-5.21-85.53l-49.7,58.99l-2.48-0.02l1.92-43.35l-44.13-77.84l6.6,72.43l-4.84,8.38l-57.46-32.3l43.03,56.29
		l-18.08,30.4l-10.38,87.87l-46.64,31.39l30.81,51.56l-76.55,55.02l33.2,47.38l-36.88,22.05l-0.02,23.32L192,537.62h166.85
		l46.11-39.41l15.67,1.5l28.7-23.7l-2.71-13.56l11.45-10.16l38.69,42.09l0.07,25.38l7.36,18.52h122.2L613.65,511.66z M359.8,479
		h-32.71l-18.99-36.04l16.56-10.08l37.95,24.24l-4.49,8.06l6.36,9.86L359.8,479L359.8,479z M485.45,372.71l-4.25-1.18l12.7-17.69
		l1.19,10.75L485.45,372.71z M485.45,372.71"/>
	<path class="st1" d="M372.32,476.23l-10.35,8.73H323.5l-23.27-44.17l24.52-14.93l45.8,29.27l-5.48,9.84L372.32,476.23
		 M457.58,324.71l-6.8,16.02l-11.24-19.14L457.58,324.71 M491.57,330.59l-22.64,9.78L467,326.32L491.57,330.59 M501.36,367.09
		l-14.47,12.2l-15.51-4.3l26.74-37.24L501.36,367.09 M607.66,492.51l-50.4-26.87l-9.15-25.29l-34.88-44.03l14.99-13.18l6.73,3.95
		l23.35-20.98l4.95,44.45l18.23-44.6l28.85,50.64l-6.95-63.28l-37.18-40.98l-19.92,16.16l-6.14-5.18l-2.09-34.46l-92.95-39.97
		l-22.09-18.21l38.92,3.7l-34.86-25.94l4.79-4.75l-4.14-67.96l-41.89,49.73l-11.47-0.06l2.12-47.83l-29.66-52.32l4.27,46.8
		l-8.74,15.11l-37.35-21l27.89,36.49l-19.49,32.78l-10.55,89.32l-44.23,29.76l30.73,51.41l-76.21,54.78l33.5,47.81l-39.48,23.61
		l-0.02,20.98l-6.67,18.55h156.18l46.35-39.62l15.73,1.5l24.06-19.86l-2.68-13.42l18.38-16.31l44.21,48.1l0.07,26.56l5.45,13.72
		h108.7l-9.23-19.3L607.66,492.51"/>
	<path class="st2" d="M462.8,440.21l15.07,16.42l64.07-14.85l-33.18-41.84L462.8,440.21z M439.39,371.36v47.7l42.29-35.29
		L439.39,371.36z M220.72,422.08l14.22,20.1l59.23-4.2l28.08-17.21l-29.88-50.22L220.72,422.08z M566.81,386.65l6.46-15.8
		l-8.27-1.35L566.81,386.65z M599.74,368.52l-8.25,3.16l10.9,19.89L599.74,368.52z M335.87,157.56l3.11-5.23l-15.91-10.1
		L335.87,157.56z M356.83,131.81l8.79-1.48l-10.82-19.83L356.83,131.81z M356.83,131.81"/>
	<path class="st3" d="M552.61,469.52l-8.1-22.53l-62.66,14.25l26.28,28.45v23.18h93.9V495.8L552.61,469.52z M534.17,380.13
		l23.44-20.94l-1.43-14.63l-21.28-18.45l-2.21-29.85l-29.87,31.17l3.76,37.57L534.17,380.13z M464.3,348.63l-2.55-19.41
		l-10.41,24.16l-11.96-21.79v33.8l26.25,7.89l26.69-36.77L464.3,348.63z M412.67,441.3l-44.28-39.86l-37.55,21.73l47.25,30.08
		l-6.53,11.46l19.54,29.92l6.76-6.03l-11.33-25.52L412.67,441.3z M412.67,441.3"/>
	<path class="st3" d="M424.51,452.15l-26.84,21.5l5.47,12.61l13.49,1.4l19.96-16.41l-2.62-11.95L424.51,452.15z M238.58,447.55
		l16.19,22.58l-41.71,24.87l0,18.11l49.67-0.05l9.53-28.11h44.89l-21.91-41.5L238.58,447.55z M404.94,223.16l37.33,3.61
		l-23.72-17.75l7.53-7.68l-3.04-51.14l-34.53,41l-15.77-0.55l-16.96,16.24l3.68,12.89l-30.09,69.3l3.2,18.5l14.62-16.16l13.54-14.96
		h0l10.36-11.45l8.72-9.64l28.71,6.54l-15.48-21.91l35.66,2.73L404.94,223.16z M377.69,240.71c-6.99,0-12.66-5.66-12.66-12.66
		c0-6.99,5.67-12.66,12.66-12.66c7,0,12.66,5.67,12.66,12.66C390.35,235.04,384.69,240.71,377.69,240.71L377.69,240.71z
		 M377.69,240.71"/>
	<path class="st4" d="M255.96,446.3l-6.51,0.47l14.01,20.01l6.66-0.65l-14.14-19.82L255.96,446.3z M269.13,445.34l-6.55,0.48
		l0.01,0.01l13.98,19.97l6.66-0.64L269.13,445.34L269.13,445.34z M282.45,444.38h-0.02l-6.53,0.47l13.98,19.98l6.65-0.64
		L282.45,444.38z M418.59,169.97l-18.45,21.58l19.64,0.34L418.59,169.97z M501.95,456.67l-6.32,1.44l-0.03,0.01l16.68,17.93
		l6.5-1.55l-16.82-17.81L501.95,456.67z M514.6,453.79l-6.36,1.45l0,0.01l16.66,17.91l6.5-1.55l-16.8-17.79L514.6,453.79z
		 M527.36,450.89L527.36,450.89l-6.36,1.45v0l16.67,17.92l6.5-1.55L527.36,450.89z M527.36,450.89"/>
	<path class="st0" d="M410.23,370.51h-46.1l9.56,28.13l43.41,39.09l16.17-13.44v-53.78H410.23z M310.55,508.31l0-0.01l-12.1-11.38
		l17.98-6.39l-40.15,0l-11.8,35.49h40.2l-11.97-11.34L310.55,508.31z M375.37,480.93l-11.29,9.6l-19.93,0l-11.47,35.5h21.98
		l32.32-27.59L375.37,480.93z M375.37,480.93"/>
	<path class="st5" d="M598.21,355.19l-17.07-17.77l-17.89,15.31l1.77,16.77l8.27,1.35l4.22-10.32l0.24-16.78l9.16,19.56l4.59,8.38
		l8.25-3.16L598.21,355.19z M377.68,234.97c3.8,0,6.88-3.08,6.88-6.88c0-3.8-3.08-6.88-6.88-6.88s-6.88,3.08-6.88,6.88
		C370.79,231.89,373.88,234.97,377.68,234.97L377.68,234.97z M370.97,139.22l-5.35-8.89l-8.79,1.48l12.21,45.93L370.97,139.22z
		 M406.11,402.79V408h27.16l0-5.21H406.11z M406.11,413.1v5.21h27.16v-5.21H406.11z M362.41,364.95l70.87,0V248.63l-28.87-2.12
		l17.18,24.29l-39.76-9.18l-48.51,53.32l-32.21-15.63l0.74-7.13l-35.57,23.93l5.72,9.28l3.47,6.01l17.71,29.69l2.94,4.93
		l31.35,52.57l39.52-22.84l-10.38-29.73l-1.72-4.93l-8.12-23.25l-2.02-5.77l6.42,0.59L362.41,364.95z M388.45,291.72
		c17.15,0,31.06,13.91,31.06,31.06c0,17.15-13.91,31.06-31.06,31.06c-17.15,0-31.06-13.91-31.06-31.06
		C357.39,305.63,371.29,291.72,388.45,291.72L388.45,291.72z M499.08,278.13l-5.54-2.38l-24.95-10.73l-5.55-2.39l-23.65-10.17v63.39
		l12.41,2.15l5.41,0.93l21.05,3.64l5.41,0.94l13.13,2.27l32.79-34.53L499.08,278.13z M310.57,508.28l-0.01,0.04l-5.87,17.71h22.96
		l11.46-35.5l-22.67,0L310.57,508.28z M310.57,508.28"/>
	<path class="st4" d="M375.65,386.17l11.52-15.66h-23.05L375.65,386.17z M375.65,386.17"/>
	<path class="st4" d="M398.7,386.17l11.52-15.66h-23.05L398.7,386.17z M421.75,386.17l11.52-15.66h-23.05L421.75,386.17z
		 M354.85,361.11l-8.12-23.25l-2.02-5.77l-72.73-6.68l3.47,6.01l17.71,29.69l2.94,4.93h60.48L354.85,361.11z M493.54,275.75
		l-24.95-10.73l-5.55-2.39l-11.24,55.37l5.41,0.93l21.05,3.64l5.41,0.94l15.41-45.38L493.54,275.75z M332.57,307.58l14.62-16.16
		l-17.82-2.35L332.57,307.58z M332.57,307.58"/>
	<path class="st4" d="M347.18,291.42l13.54-14.96l-16.38-1.41L347.18,291.42z M379.8,255.37l-12.06-1.75l3.34,11.39L379.8,255.37z
		 M357.47,263.16l3.25,13.29l10.36-11.45L357.47,263.16z M414.52,319.09c-1.34-12.29-11.17-22.06-23.48-23.31
		c-11.5,0.27-17.83,6.89-17.83,18.75c0,12.92,10.52,23.44,23.44,23.44C408.96,337.97,414.48,332.14,414.52,319.09L414.52,319.09z
		 M310.56,508.3l0.01-0.02l5.88-17.74l-17.98,6.39L310.56,508.3z M304.69,526.03l5.87-17.71l-17.84,6.37L304.69,526.03z
		 M327.65,526.03h5.02l11.47-35.5h-5.03L327.65,526.03z M327.65,526.03"/>
	<path class="st0" d="M354.85,361.11l-8.12-23.25l-71.28-6.44l17.71,29.69H354.85z M493.54,275.75l-24.95-10.73l-11.38,53.92
		l21.05,3.64L493.54,275.75z M577.42,332.97l-11.82-13l-15.07,12.23l14.11,11.86L577.42,332.97z M604.64,518.51l-96.13,0.02
		l3.4,8.06h96.58L604.64,518.51z M505.52,370.82l-83.69,70.33l-28.36,23.42l1.74,3.87l29.23-23.48l12.95,10l85.36-74.66
		L505.52,370.82z M208.83,526.03h49.8l2.16-7.21h-49.36L208.83,526.03z M366.37,189l-13.18-49.46l-34.34,57.64l-11.71,98.56
		l16.15-8.89l29.57-67.43l-4.27-14.21L366.37,189z M314.05,286.31c-1.39,0-2.51-1.12-2.51-2.51c0.05-3.29,4.96-3.29,5.02,0
		C316.55,285.19,315.43,286.31,314.05,286.31L314.05,286.31z M315.23,278.04c-3.34,0-3.34-5.02,0-5.02c1.39,0,2.51,1.12,2.51,2.51
		C317.74,276.91,316.61,278.04,315.23,278.04L315.23,278.04z M316.41,269.76c-1.4,0.02-2.55-1.1-2.55-2.51
		c0-1.4,1.15-2.53,2.55-2.51C319.76,264.74,319.76,269.76,316.41,269.76L316.41,269.76z M321.09,282.67c-1.39,0-2.52-1.12-2.52-2.51
		s1.12-2.51,2.52-2.51c1.41-0.04,2.57,1.1,2.57,2.51C323.66,281.57,322.49,282.7,321.09,282.67L321.09,282.67z M322.27,274.39
		c-1.39,0-2.51-1.12-2.51-2.51c-0.02-1.4,1.11-2.55,2.51-2.55c1.4,0,2.53,1.15,2.51,2.55C324.77,273.26,323.65,274.39,322.27,274.39
		L322.27,274.39z M323.45,266.11c-3.35,0-3.35-5.02,0-5.02C326.8,261.09,326.8,266.11,323.45,266.11L323.45,266.11z M341.88,220.07
		l-17.31-5.64l2.48-6.53l17.56,5.88L341.88,220.07z M340.47,188.78l-10.21,0l18-30.38L340.47,188.78z M368.26,314.53
		c0-4.62,0.85-8.66,2.46-12.03c-5.3,4.82-8.66,11.75-8.66,19.46c0,14.51,11.8,26.31,26.31,26.31c6.71,0,12.82-2.54,17.48-6.7
		c-2.69,0.88-5.75,1.34-9.2,1.34C380.99,342.92,368.26,330.19,368.26,314.53L368.26,314.53z M368.26,314.53"/>
</g>
</svg>
