<?xml version="1.0" encoding="utf-8"?>
<!-- Generator: Adobe Illustrator 13.0.0, SVG Export Plug-In . SVG Version: 6.00 Build 14948)  -->
<!DOCTYPE svg PUBLIC "-//W3C//DTD SVG 1.1//EN" "http://www.w3.org/Graphics/SVG/1.1/DTD/svg11.dtd">
<svg version="1.1" id="Layer_11" xmlns="http://www.w3.org/2000/svg" xmlns:xlink="http://www.w3.org/1999/xlink" x="0px" y="0px"
	 width="221.806px" height="186.821px" viewBox="5.565 2.423 221.806 186.821" enable-background="new 5.565 2.423 221.806 186.821"
	 xml:space="preserve">
<g>
	<path fill="#FFA428" d="M36.416,56.454c-0.017-0.011-0.034-0.023-0.05-0.036c-2.365-1.669-1.287-5.147-0.592-7.512
		c4.989-16.444,9.394-27.046,10.747-32.693c1.009-3.547,0.035-4.625-1.6-5.981c-2.678-2.227-9.563-6.14-12.173-7.809
		c-1.513,0.262-5.947,0.437-6.539,4.191c-0.973,7.512-6.817,44.379-6.817,44.379c-0.869,7.129,5.982,12.659,5.982,12.659
		l0.091,0.067c-6.946,5.026-13.606,10.678-19.9,16.974c10.928,62.732,73.215,97.623,111,108.551
		c45.145-13.188,100.233-49.635,110.806-108.621C173.947,27.792,96.461,20.131,36.416,56.454z"/>
	<path fill="#000036" d="M11.255,82.085c57.803-56.829,149.619-58.775,210.343,0c-13.701,68.099-91.815,99.22-105.381,101.833
		C102.167,181.344,22.871,147.677,11.255,82.085z"/>
	<path fill="#3376BE" d="M23.289,79.721c26.85-22.816,61.768-35.318,96.512-35.248c32.866,0,71.401,14.866,95.459,40.193
		l-2.085,5.843C161.5,37.846,83.039,38.681,23.289,79.721z"/>
	<path fill="#8F182A" d="M61.786,74.769c-1.397-1.688-3.903-2.075-6.604-2.075c-2.817,0-7.513,1.564-7.513,1.564L58.11,84.775l0,0
		C59.81,82.335,61.253,79.077,61.786,74.769z"/>
	<path fill="#FCB02F" d="M28.47,8.84c1.238-3.888,2.817-3.547,4.435-3.46l-6.834,42.691c0.165,0.42-1.355,5.216,3.652,10.538
		c2.714,2.312,6.712-1.397,9.651,2.06c15.669,18.433,45.309,52.509,45.309,52.509c1.251,4.449-5.339,4.449-7.564,2.505
		L26.175,60.174c-3.338-3.65-4.169-7.374-4.068-10.121L28.47,8.84z"/>
	<polygon fill="#FFFFFF" points="42.034,23.187 32.231,9.831 39.354,31.482 	"/>
	<polygon fill="#FFFFFF" points="30.297,12.805 30.615,10.772 27.583,21.986 37.652,36.75 37.739,36.482 	"/>
	<path fill="#8C0026" d="M164.109,93.249c-9.496,0-29.809,3.095-40.17,9.702c0,0,8.139-1.354,13.355-1.354s7.721,1.146,7.721,3.024
		c0,1.879-3.236,8.034-36.102,8.242c-13.395,0-24.912-1.515-34.317-3.874L29.723,58.609c-5.007-5.321-3.487-10.117-3.652-10.538
		L32.905,5.38c-1.617-0.087-3.196-0.428-4.435,3.46l-6.364,41.212c-0.101,2.748,0.73,6.471,4.068,10.121L41.341,76.7
		c-2.017,0.89-5.21,2.563-7.654,5.072c-3.86,3.964-5.738,8.66-5.738,12.938c0,17.911,34.431,63.958,89.417,78.356
		c0,0,72.618-23.787,72.618-63.021C189.984,95.023,173.605,93.249,164.109,93.249z M45.477,90.119c0-2.316,1.763-4.36,3.072-5.566
		l21.192,23.093C54.047,102.849,45.477,95.666,45.477,90.119z"/>
	<path fill="#CE7328" d="M66.426,80.877c-2.015-2.667-3.975-5.257-4.5-5.932c-0.089-0.114-0.141-0.179-0.141-0.176l0,0
		c-0.532,4.308-1.976,7.565-3.676,10.006l0,0c-3.483,4.996-8.041,6.544-8.041,6.544c2.608,1.721,6.313,3.13,10.33,3.13
		c6.469,0,11.111-5.688,11.111-6.835C71.509,87.615,68.929,84.19,66.426,80.877z"/>
	<path fill="#FFA428" d="M65.105,79.13c-0.256,3.374-1.03,7.566-4.811,9.737c2.29,0.789,6.253-1.052,8.949-4.257
		C68.399,83.49,65.533,79.695,65.105,79.13z"/>
	<path fill="#CE7328" d="M164.109,93.249c-9.496,0-29.809,3.095-40.17,9.702c0,0,19.406-5.007,24.623-5.007
		c5.215,0,9.182,1.981,9.182,4.851c0,4.539-15.965,9.861-48.83,10.069c-13.395,0-73.87-2.974-73.087-24.207
		c0,0-2.088,1.097-2.088,5.374c0,14.695,41.579,36.953,85.453,37.09c-4.644,1.567-20.606,3.619-28.153,3.619
		c0,0-17.181,0.243-29.649-4.452c-0.235,0.234,13.72,16.625,52.272,21.214c-4.121,0.801-10.033,0.905-12.954,0.905
		c-28.589,0-47.208-15.754-46.884-15.44c15.393,14.922,37.089,29.174,63.542,36.1c0,0,72.617-23.787,72.617-63.021
		C189.984,95.023,173.605,93.249,164.109,93.249z"/>
	<path fill="#FFA428" d="M164.109,93.249c-4.227,0-8.426,0.541-8.426,0.541s14.373,0.363,14.373,6.867
		c0,10.329-25.563,19.929-61.143,19.929c0,0-5.999,0.104-7.629-0.562c0,0,7.943,4.524,32.357,4.524
		c16.381,0,28.172-3.546,36.937-9.39c-13.251,18.989-49.04,26.084-63.125,26.084c0,0,2.609,1.774,18.676,1.774
		c25.459,0,41.736-11.582,49.146-17.009c-9.287,21.076-56.656,33.91-56.656,33.91c35.268-2.087,58.324-19.614,65.57-30.895
		c3.61-5.833,5.795-12.173,5.795-18.979C189.984,95.023,173.605,93.249,164.109,93.249z"/>
	<circle fill="#FCB02F" cx="149.311" cy="72.251" r="2.712"/>
	<path fill="#8F182A" d="M173.743,70.991l2.435-1.391c0,0-24.902-14.017-57.662-13.981c-19.408,0-44.449,5.808-52.519,9.912
		c7.373-1.182,42.013-3.964,49.529-0.805c-9.741,0.179-24.766,5.325-34.156,14.61c8.973-3.999,29.006-8.031,42.082-5.459
		c-8.068,1.601-34.083,11.755-39.266,25.181c10.33-7.582,24.171-11.234,34.466-11.234c7.373,0,8.695,0.87,8.695,0.87
		c-2.539,2.017-7.859,6.052-11.443,10.712c14.4-6.4,31.301-10.886,47.406-10.886c16.762,0,30.744,5.146,36.726,9.077
		C197.184,89.702,183.203,75.616,173.743,70.991z M133.747,64.662c0,0,18.571,1.773,30.676,9.389
		c-5.114-1.25-17.217-2.085-17.217-2.085c-7.304,0-8.66,0.835-8.66,0.835c1.044-1.044,3.444-2.816,5.22-3.234
		C143.764,69.564,137.712,66.123,133.747,64.662z M140.633,80.207l6.364-3.233c0,0,15.128,2.399,23.528,7.095
		C170.525,84.067,150.285,80.05,140.633,80.207z"/>
	<path fill="#CE7328" d="M173.743,70.991l2.435-1.391c0,0-24.902-14.017-57.662-13.981c-19.408,0-44.449,5.808-52.519,9.912
		c7.373-1.182,40.205-13.912,60.761,0.904c-6.783,0.208-14.086,0.729-20.451,3.339c8.242-1.356,20.136,1.252,25.667,4.485
		c-8.067,1.602-25.25,6.47-30.989,13.355c4.591-2.607,14.816-3.964,21.286-3.964c4.067,0,8.66,0.417,10.224,1.46
		c-3.443,2.19-13.007,9.634-16.589,14.294c14.399-6.4,31.301-10.886,47.405-10.886c16.762,0,30.744,5.146,36.727,9.077
		C197.184,89.702,183.203,75.616,173.743,70.991z M133.747,64.662c0,0,18.571,1.773,30.676,9.389
		c-5.114-1.25-17.217-2.085-17.217-2.085c-7.304,0-8.66,0.835-8.66,0.835c1.044-1.044,3.444-2.816,5.22-3.234
		C143.764,69.564,137.712,66.123,133.747,64.662z M140.633,80.207l6.364-3.233c0,0,15.128,2.399,23.528,7.095
		C170.525,84.067,150.285,80.05,140.633,80.207z"/>
	<path fill="#FFA428" d="M173.743,70.991l2.435-1.391c0,0-24.902-14.017-57.662-13.981c-19.408,0-44.449,5.808-52.519,9.912
		c0,0,54.674-19.129,102.946,4.521l-2.748,1.565c11.06,3.999,25.771,13.598,33.841,25.979
		C197.184,89.702,183.203,75.616,173.743,70.991z"/>
	<path fill="#FFFFFF" d="M158.926,75.825l-4.714,2.6c5.054,1.178,11.697,3.063,16.313,5.644c0,0-10.981-2.18-20.625-3.266
		l-6.485,3.578c0,0,22.049-2.364,44.864,5.356C174.786,79.025,158.926,75.825,158.926,75.825z"/>
</g>
</svg>
