<svg xmlns="http://www.w3.org/2000/svg" viewBox="0 0 960 640"><path fill="#fff" d="M915.48 395.973c.644-123.615-128.521-200.57-169.729-213.925 0 0 78.143 113.372 72.375 191.514-2.546 34.455-19.64 45.69-36.86 48.001-.341-67.8-28.562-124.323-48.418-155.74l15.015-16.334S716.63 166.39 589.962 65.654l-20.174 13.071L448.545.183 327.468 78.617 308.63 66.414 44.517 237.494l152.96 82.407-31.275 20.258 168.127 90.594-30.498 19.756s117.354 65.054 233.621 55.64c10.96 6.827 22.361 13.312 34.072 19.213-58.227 30.49-126.452 13.864-126.452 13.864l-82.84 52.174c212.272 102.723 331.02 17.863 373.42-33.495 96.095-5.115 179.253-50.438 179.829-161.932Z"/><path fill="#010101" d="M898.575 400.476c0-69.97-48.343-144.64-114.615-183.025 58.785 107.188 66.74 178.376 28.245 208.69-12.061 9.499-29.999 14.14-50.08 13.956.46-5.884.726-11.818.726-17.795 0-59.97-22.327-114.624-53.677-158.144l16.367-18.028s-34.154-72.424-136.91-157.25l-18.838 12.202L448.55 22.54l-121.084 78.433-18.838-12.202L81.365 235.997l152.96 82.406-31.275 20.266 168.135 90.595-29.255 18.955 4.757 2.329c34.364 15.558 110.869 44.32 192.766 36.474 19.006 12.863 40.74 24.706 65.221 33.98-37.51 38.828-106.42 44.712-156.124 35.999l-49.312 31.942c46.357 21.493 100.043 31.76 146.718 31.76 63.55 0 121.435-19.04 161.75-58.911 6.375-6.31 12.151-13.03 17.41-20.074 100.251-1.327 173.46-52.083 173.46-141.242"/><path fill="#fff" d="M698.247 391.293s17.16-5.216 34.012-1.285c-.559-3.79-1.218-7.554-1.961-11.292-2.12-8.715-10.875-27.22-49.279-38.412 0 0 13.172-7.537 37.151-2.921a260 260 0 0 0-4.315-10.417c-4.407-8.605-18.146-28.079-52.91-30.173 0 0 14.482-8.463 31.784-8.839-6.384-9.816-13.287-19.09-20.574-27.686l16.05-18.154c-14.464-22.836-45.922-66.147-102.03-115.426L569.81 137.29 448.565 58.747 340.885 128.5l152.894 21.86 79.928 51.774-68.443-17.303-139.58 52.801 82.873 30.173-101.612 31.676 135.375 72.59s14.723-14.205 39.487-26.04h-.008c15.867-7.589 35.857-14.207 58.769-15.493 0 0-23.864-43.794-78.493-67.683l10.818-12.677s-19.105-7.037-64.336-10.476c0 0 52.817-25.908 107.104-22.227l66.047 42.785h28.287l-30.274 35.465c26.652 32.97 43.787 72.098 50.49 111.386 6.51 5.008 13.087 9.44 19.689 13.154 14.115 7.946 29.28 13.496 44.23 16.677.091-1.32.15-2.646.224-3.965-.133-8.714-3.68-31.417-36.107-41.684ZM643.973 532.877a123 123 0 0 1-3.698 4.29c-26.284 29.255-64.978 44.587-104.8 49.93-11.41 1.526-22.887 2.295-34.121 2.286 15.166 2.095 30.172 3.13 44.587 3.13 57.534 0 107.405-16.618 141.943-50.764.517-.509.993-1.052 1.502-1.57-12.193-1.176-42.76-6.693-45.413-7.302"/><path fill="#6cace4" d="m573.686 202.12-80.662-76.538-95.285-14.799 50.798-52.05-107.671 69.754 152.893 21.86zM505.25 184.807l-139.581 52.81 82.874 30.165-47.517-30.783zM569.778 137.277l31.65 20.499-15.274-31.1zM482.304 372.072s14.723-14.206 39.487-26.041L346.93 299.48zM670.2 407.087c6.51 5.007 13.088 9.44 19.69 13.154 1.67.943 3.364 1.836 5.058 2.713-.968-16.117-3.889-32.995-8.855-50.439-8.473-29.513-22.453-57.35-40.79-81.973l4.682-30.306-30.273 35.481c26.65 32.97 43.786 72.09 50.488 111.37ZM689.447 540.19s-19.75-2.679-45.473-7.31a122 122 0 0 1-3.698 4.29c-26.284 29.255-64.978 44.587-104.8 49.93-11.402 1.526-22.887 2.295-34.121 2.286 0 0 20.507 1.494 36.382.459 2.062-.15 4.1-.326 6.12-.518q2.588-.237 5.166-.55c.1-.009.2-.025.3-.033 2.546-.301 5.09-.643 7.612-1.043 38.462-5.818 69.67-20.4 92.664-41.625z"/><path fill="#fff" d="M507.612 395.573c41.082-33.345 80.988-37.068 80.988-37.068s9.598 14.933 27.018 33.446c38.328 40.731 88.282 70.754 144.213 70.754 35.824 0 68.334-13.204 84.31-42.634 22.828-42.05 5.258-102.455-17.095-147.528 19.665 22.612 39.947 56.24 47.167 92.782 5.518 27.944 5.041 61.006-12.653 90.077-24.59 40.364-76.138 58.969-132.494 58.969-76.289-.008-158.395-40.54-221.454-118.798"/><path fill="#6cace4" d="M540.38 374.295a184 184 0 0 0-32.768 21.292c45.823 56.867 104.5 97.948 172.383 113.432 16.301 3.722 34.53 5.642 53.085 5.324 31.625-5.566 45.823-18.98 45.823-18.98-135.967 17.394-213.84-82.482-238.522-121.068M551.88 246.35l-.041-.016s11 26.86 31.007 38.904l13.655-9.974 11.895-1.277z"/><path fill="#fff" d="m322.46 189.767-56.031 71.89 101.002-62.274-30.214-19.573 27.46-18.555-55.472-35.931-32.093 71.764z"/><path fill="#6cace4" d="m235.355 219.089 52-8.872-20.925 51.44 56.03-71.89-45.347 7.32 32.093-71.763-169.579 107.478 110.05-44.67z"/></svg>